# xmcd
#
# Track frame offsets:
#	150
#	13252
#	27416
#	37395
#	47744
#	62248
#	78423
#	90484
#	102635
#	112539
#	124072
#	136704
#	147150
#	165731
#	178988
#
# Disc length: 2524 seconds
#
# Revision: 0
# Processed by: cddbd v1.5.2PL0 Copyright (c) Steve Scherf et al.
# Submitted via: dBpowerAMP V4.0
#
DISCID=cf09da0f
DTITLE=Tradition's Revival - All the good Times
DYEAR=1999
DGENRE=Country
TTITLE0=this land is your land
TTITLE1=the cuckoo
TTITLE2=rose of tralee
TTITLE3=baby ride easy
TTITLE4=she has forgotten
TTITLE5=Kaw Liga
TTITLE6=fox on the run
TTITLE7=in the cotton fields
TTITLE8=all I have to do is dream
TTITLE9=king of the road
TTITLE10=all the good times
TTITLE11=daddy sang bass
TTITLE12=my grandfather's clock
TTITLE13=country roads
TTITLE14=waitin' for a train
EXTD=
EXTT0=
EXTT1=
EXTT2=
EXTT3=
EXTT4=
EXTT5=
EXTT6=
EXTT7=
EXTT8=
EXTT9=
EXTT10=
EXTT11=
EXTT12=
EXTT13=
EXTT14=
PLAYORDER=
